<svg width="240" height="34" viewBox="0 0 240 34" fill="none" xmlns="http://www.w3.org/2000/svg">
<rect width="240" height="34" fill="white"/>
<path d="M15.5 8.5H13.5C13.2239 8.5 13 8.72386 13 9V11C13 11.2761 13.2239 11.5 13.5 11.5H15.5C15.7761 11.5 16 11.2761 16 11V9C16 8.72386 15.7761 8.5 15.5 8.5Z" fill="#464646"/>
<path d="M21.5 8.5H19.5C19.2239 8.5 19 8.72386 19 9V11C19 11.2761 19.2239 11.5 19.5 11.5H21.5C21.7761 11.5 22 11.2761 22 11V9C22 8.72386 21.7761 8.5 21.5 8.5Z" fill="#464646"/>
<path d="M27.5 8.5H25.5C25.2239 8.5 25 8.72386 25 9V11C25 11.2761 25.2239 11.5 25.5 11.5H27.5C27.7761 11.5 28 11.2761 28 11V9C28 8.72386 27.7761 8.5 27.5 8.5Z" fill="#464646"/>
<path d="M15.5 14.5H13.5C13.2239 14.5 13 14.7239 13 15V17C13 17.2761 13.2239 17.5 13.5 17.5H15.5C15.7761 17.5 16 17.2761 16 17V15C16 14.7239 15.7761 14.5 15.5 14.5Z" fill="#464646"/>
<path d="M21.5 14.5H19.5C19.2239 14.5 19 14.7239 19 15V17C19 17.2761 19.2239 17.5 19.5 17.5H21.5C21.7761 17.5 22 17.2761 22 17V15C22 14.7239 21.7761 14.5 21.5 14.5Z" fill="#464646"/>
<path d="M27.5 14.5H25.5C25.2239 14.5 25 14.7239 25 15V17C25 17.2761 25.2239 17.5 25.5 17.5H27.5C27.7761 17.5 28 17.2761 28 17V15C28 14.7239 27.7761 14.5 27.5 14.5Z" fill="#464646"/>
<path d="M15.5 20.5H13.5C13.2239 20.5 13 20.7239 13 21V23C13 23.2761 13.2239 23.5 13.5 23.5H15.5C15.7761 23.5 16 23.2761 16 23V21C16 20.7239 15.7761 20.5 15.5 20.5Z" fill="#464646"/>
<path d="M21.5 20.5H19.5C19.2239 20.5 19 20.7239 19 21V23C19 23.2761 19.2239 23.5 19.5 23.5H21.5C21.7761 23.5 22 23.2761 22 23V21C22 20.7239 21.7761 20.5 21.5 20.5Z" fill="#464646"/>
<path d="M27.5 20.5H25.5C25.2239 20.5 25 20.7239 25 21V23C25 23.2761 25.2239 23.5 25.5 23.5H27.5C27.7761 23.5 28 23.2761 28 23V21C28 20.7239 27.7761 20.5 27.5 20.5Z" fill="#464646"/>
<path d="M41.26 21V11.816H43.556C44.9747 11.816 46.0527 12.2127 46.79 13.006C47.5273 13.79 47.896 14.91 47.896 16.366C47.896 17.8313 47.5273 18.97 46.79 19.782C46.062 20.594 45.0027 21 43.612 21H41.26ZM42.422 20.048H43.472C44.5453 20.048 45.348 19.726 45.88 19.082C46.4213 18.4287 46.692 17.5233 46.692 16.366C46.692 15.2087 46.4213 14.322 45.88 13.706C45.348 13.0807 44.5453 12.768 43.472 12.768H42.422V20.048ZM51.3293 21.168C50.7599 21.168 50.2839 21 49.9013 20.664C49.5279 20.3187 49.3413 19.8427 49.3413 19.236C49.3413 18.4893 49.6726 17.92 50.3353 17.528C51.0073 17.1267 52.0666 16.8467 53.5133 16.688C53.5133 16.3987 53.4713 16.1233 53.3873 15.862C53.3126 15.6007 53.1726 15.3907 52.9673 15.232C52.7713 15.064 52.4866 14.98 52.1133 14.98C51.7213 14.98 51.3526 15.0547 51.0073 15.204C50.6619 15.3533 50.3539 15.5213 50.0833 15.708L49.6353 14.91C49.9526 14.7047 50.3399 14.5087 50.7973 14.322C51.2639 14.126 51.7679 14.028 52.3093 14.028C53.1399 14.028 53.7419 14.2847 54.1153 14.798C54.4886 15.302 54.6753 15.9787 54.6753 16.828V21H53.7233L53.6253 20.188H53.5833C53.2659 20.4493 52.9159 20.678 52.5333 20.874C52.1599 21.07 51.7586 21.168 51.3293 21.168ZM51.6653 20.244C51.9919 20.244 52.2999 20.1647 52.5893 20.006C52.8786 19.8473 53.1866 19.6233 53.5133 19.334V17.444C52.3839 17.584 51.5906 17.794 51.1333 18.074C50.6853 18.354 50.4613 18.7133 50.4613 19.152C50.4613 19.5347 50.5779 19.8147 50.8113 19.992C51.0446 20.16 51.3293 20.244 51.6653 20.244ZM58.594 21.168C58.1086 21.168 57.6466 21.0793 57.208 20.902C56.7693 20.7153 56.3866 20.4913 56.06 20.23L56.634 19.46C56.9326 19.6933 57.2406 19.8893 57.558 20.048C57.8753 20.1973 58.2346 20.272 58.636 20.272C59.084 20.272 59.42 20.1693 59.644 19.964C59.868 19.7493 59.98 19.4973 59.98 19.208C59.98 18.9747 59.9006 18.7787 59.742 18.62C59.5926 18.4613 59.3966 18.3307 59.154 18.228C58.9206 18.116 58.678 18.0133 58.426 17.92C58.1086 17.7987 57.796 17.6633 57.488 17.514C57.18 17.3553 56.928 17.1547 56.732 16.912C56.536 16.66 56.438 16.3427 56.438 15.96C56.438 15.4093 56.6433 14.952 57.054 14.588C57.474 14.2147 58.0526 14.028 58.79 14.028C59.21 14.028 59.602 14.1027 59.966 14.252C60.33 14.4013 60.6426 14.5833 60.904 14.798L60.344 15.526C60.1106 15.3487 59.868 15.204 59.616 15.092C59.364 14.98 59.0886 14.924 58.79 14.924C58.3606 14.924 58.0433 15.022 57.838 15.218C57.642 15.414 57.544 15.6427 57.544 15.904C57.544 16.1187 57.614 16.296 57.754 16.436C57.894 16.5667 58.076 16.6833 58.3 16.786C58.524 16.8793 58.762 16.9773 59.014 17.08C59.3406 17.2013 59.6626 17.3413 59.98 17.5C60.2973 17.6493 60.5586 17.8547 60.764 18.116C60.9786 18.368 61.086 18.7087 61.086 19.138C61.086 19.502 60.988 19.838 60.792 20.146C60.6053 20.454 60.3253 20.7013 59.952 20.888C59.588 21.0747 59.1353 21.168 58.594 21.168ZM62.6812 21V11.032H63.8292V13.748L63.7872 15.148C64.1139 14.84 64.4545 14.5787 64.8092 14.364C65.1732 14.14 65.5885 14.028 66.0552 14.028C66.7739 14.028 67.2965 14.2567 67.6232 14.714C67.9592 15.162 68.1272 15.82 68.1272 16.688V21H66.9792V16.842C66.9792 16.2073 66.8765 15.7453 66.6712 15.456C66.4659 15.1667 66.1392 15.022 65.6912 15.022C65.3459 15.022 65.0332 15.1107 64.7532 15.288C64.4825 15.4653 64.1745 15.7267 63.8292 16.072V21H62.6812ZM73.3064 21.168C72.9891 21.168 72.6578 21.0933 72.3124 20.944C71.9764 20.7853 71.6591 20.5707 71.3604 20.3H71.3184L71.2204 21H70.2964V11.032H71.4444V13.748L71.4164 14.98C71.7244 14.7093 72.0604 14.4853 72.4244 14.308C72.7978 14.1213 73.1711 14.028 73.5444 14.028C74.4311 14.028 75.1031 14.3407 75.5604 14.966C76.0178 15.5913 76.2464 16.4313 76.2464 17.486C76.2464 18.2607 76.1064 18.9233 75.8264 19.474C75.5558 20.0247 75.1964 20.4447 74.7484 20.734C74.3098 21.0233 73.8291 21.168 73.3064 21.168ZM73.1104 20.202C73.6704 20.202 74.1324 19.964 74.4964 19.488C74.8698 19.0027 75.0564 18.34 75.0564 17.5C75.0564 16.7533 74.9164 16.1513 74.6364 15.694C74.3658 15.2273 73.9084 14.994 73.2644 14.994C72.9751 14.994 72.6811 15.0733 72.3824 15.232C72.0838 15.3907 71.7711 15.6193 71.4444 15.918V19.488C71.7431 19.7493 72.0371 19.936 72.3264 20.048C72.6251 20.1507 72.8864 20.202 73.1104 20.202ZM80.6807 21.168C80.1301 21.168 79.6121 21.028 79.1267 20.748C78.6507 20.468 78.2634 20.062 77.9647 19.53C77.6754 18.998 77.5307 18.3587 77.5307 17.612C77.5307 16.8467 77.6754 16.198 77.9647 15.666C78.2634 15.134 78.6507 14.728 79.1267 14.448C79.6121 14.168 80.1301 14.028 80.6807 14.028C81.2407 14.028 81.7587 14.168 82.2347 14.448C82.7107 14.728 83.0934 15.134 83.3827 15.666C83.6814 16.198 83.8307 16.8467 83.8307 17.612C83.8307 18.3587 83.6814 18.998 83.3827 19.53C83.0934 20.062 82.7107 20.468 82.2347 20.748C81.7587 21.028 81.2407 21.168 80.6807 21.168ZM80.6807 20.216C81.2687 20.216 81.7401 19.978 82.0947 19.502C82.4587 19.0167 82.6407 18.3867 82.6407 17.612C82.6407 16.828 82.4587 16.1933 82.0947 15.708C81.7401 15.2227 81.2687 14.98 80.6807 14.98C80.1021 14.98 79.6307 15.2227 79.2667 15.708C78.9027 16.1933 78.7207 16.828 78.7207 17.612C78.7207 18.3867 78.9027 19.0167 79.2667 19.502C79.6307 19.978 80.1021 20.216 80.6807 20.216ZM86.9992 21.168C86.4299 21.168 85.9539 21 85.5712 20.664C85.1979 20.3187 85.0112 19.8427 85.0112 19.236C85.0112 18.4893 85.3425 17.92 86.0052 17.528C86.6772 17.1267 87.7365 16.8467 89.1832 16.688C89.1832 16.3987 89.1412 16.1233 89.0572 15.862C88.9825 15.6007 88.8425 15.3907 88.6372 15.232C88.4412 15.064 88.1565 14.98 87.7832 14.98C87.3912 14.98 87.0225 15.0547 86.6772 15.204C86.3319 15.3533 86.0239 15.5213 85.7532 15.708L85.3052 14.91C85.6225 14.7047 86.0099 14.5087 86.4672 14.322C86.9339 14.126 87.4379 14.028 87.9792 14.028C88.8099 14.028 89.4119 14.2847 89.7852 14.798C90.1585 15.302 90.3452 15.9787 90.3452 16.828V21H89.3932L89.2952 20.188H89.2532C88.9359 20.4493 88.5859 20.678 88.2032 20.874C87.8299 21.07 87.4285 21.168 86.9992 21.168ZM87.3352 20.244C87.6619 20.244 87.9699 20.1647 88.2592 20.006C88.5485 19.8473 88.8565 19.6233 89.1832 19.334V17.444C88.0539 17.584 87.2605 17.794 86.8032 18.074C86.3552 18.354 86.1312 18.7133 86.1312 19.152C86.1312 19.5347 86.2479 19.8147 86.4812 19.992C86.7145 20.16 86.9992 20.244 87.3352 20.244ZM92.4859 21V14.196H93.4379L93.5359 15.428H93.5779C93.8112 14.9987 94.0959 14.658 94.4319 14.406C94.7679 14.154 95.1272 14.028 95.5099 14.028C95.7806 14.028 96.0232 14.0747 96.2379 14.168L96.0139 15.176C95.9019 15.1387 95.7992 15.1107 95.7059 15.092C95.6126 15.0733 95.4959 15.064 95.3559 15.064C95.0666 15.064 94.7632 15.1807 94.4459 15.414C94.1379 15.6473 93.8672 16.0533 93.6339 16.632V21H92.4859ZM99.5267 21.168C98.6774 21.168 97.996 20.86 97.4827 20.244C96.9694 19.6187 96.7127 18.7413 96.7127 17.612C96.7127 16.8747 96.848 16.24 97.1187 15.708C97.3987 15.1667 97.7627 14.7513 98.2107 14.462C98.668 14.1727 99.1534 14.028 99.6667 14.028C100.059 14.028 100.399 14.098 100.689 14.238C100.978 14.378 101.272 14.5693 101.571 14.812L101.515 13.65V11.032H102.677V21H101.725L101.627 20.202H101.585C101.323 20.4633 101.015 20.692 100.661 20.888C100.306 21.0747 99.928 21.168 99.5267 21.168ZM99.7787 20.202C100.376 20.202 100.955 19.8893 101.515 19.264V15.708C101.225 15.4467 100.945 15.2647 100.675 15.162C100.413 15.05 100.143 14.994 99.8627 14.994C99.4987 14.994 99.1674 15.106 98.8687 15.33C98.5794 15.5447 98.346 15.848 98.1687 16.24C97.9914 16.6227 97.9027 17.0753 97.9027 17.598C97.9027 18.41 98.066 19.0493 98.3927 19.516C98.7194 19.9733 99.1814 20.202 99.7787 20.202Z" fill="#222222"/>
</svg>
