<svg width="15" height="16" viewBox="0 0 15 16" fill="none" xmlns="http://www.w3.org/2000/svg">
<path d="M14.75 2H11V1C11 0.734784 10.8946 0.48043 10.7071 0.292893C10.5196 0.105357 10.2652 0 10 0H5C4.73478 0 4.48043 0.105357 4.29289 0.292893C4.10536 0.48043 4 0.734784 4 1V2H0.25C0.183696 2 0.120107 2.02634 0.0732234 2.07322C0.0263393 2.12011 0 2.1837 0 2.25V2.75C0 2.8163 0.0263393 2.87989 0.0732234 2.92678C0.120107 2.97366 0.183696 3 0.25 3H1.25L2.4565 15.55C2.46894 15.6738 2.52706 15.7884 2.61951 15.8717C2.71197 15.9549 2.83212 16.0006 2.9565 16H12.046C12.1704 16.0006 12.2905 15.9549 12.383 15.8717C12.4754 15.7884 12.5336 15.6738 12.546 15.55L13.75 3H14.75C14.8163 3 14.8799 2.97366 14.9268 2.92678C14.9737 2.87989 15 2.8163 15 2.75V2.25C15 2.1837 14.9737 2.12011 14.9268 2.07322C14.8799 2.02634 14.8163 2 14.75 2ZM4.5325 13.5C4.46693 13.5044 4.40113 13.4959 4.33887 13.4748C4.2766 13.4538 4.2191 13.4207 4.16964 13.3774C4.12018 13.3341 4.07974 13.2815 4.05064 13.2226C4.02153 13.1637 4.00432 13.0996 4 13.034L3.4645 5.034C3.4601 4.96834 3.46868 4.90245 3.48974 4.84011C3.5108 4.77776 3.54394 4.72017 3.58726 4.67063C3.63058 4.62109 3.68323 4.58057 3.74221 4.55138C3.80119 4.52219 3.86534 4.5049 3.931 4.5005C3.99666 4.4961 4.06255 4.50468 4.12489 4.52574C4.18724 4.5468 4.24483 4.57994 4.29437 4.62326C4.34391 4.66658 4.38443 4.71923 4.41362 4.77821C4.44281 4.83719 4.4601 4.90134 4.4645 4.967L5 12.967C5.00448 13.0327 4.99592 13.0987 4.97482 13.1611C4.95372 13.2235 4.92049 13.2812 4.87705 13.3307C4.83361 13.3802 4.7808 13.4207 4.72167 13.4497C4.66254 13.4788 4.59825 13.4959 4.5325 13.5ZM8 13C8 13.1326 7.94732 13.2598 7.85355 13.3536C7.75979 13.4473 7.63261 13.5 7.5 13.5C7.36739 13.5 7.24021 13.4473 7.14645 13.3536C7.05268 13.2598 7 13.1326 7 13V5C7 4.86739 7.05268 4.74021 7.14645 4.64645C7.24021 4.55268 7.36739 4.5 7.5 4.5C7.63261 4.5 7.75979 4.55268 7.85355 4.64645C7.94732 4.74021 8 4.86739 8 5V13ZM10 2H5V1H10V2ZM11 13.034C10.9911 13.1666 10.9299 13.2903 10.8299 13.3777C10.7298 13.4652 10.5991 13.5094 10.4665 13.5005C10.3339 13.4916 10.2102 13.4304 10.1228 13.3304C10.0353 13.2303 9.99112 13.0996 10 12.967L10.5355 4.967C10.5399 4.90134 10.5572 4.83719 10.5864 4.77821C10.6156 4.71923 10.6561 4.66658 10.7056 4.62326C10.7552 4.57994 10.8128 4.5468 10.8751 4.52574C10.9375 4.50468 11.0033 4.4961 11.069 4.5005C11.1347 4.5049 11.1988 4.52219 11.2578 4.55138C11.3168 4.58057 11.3694 4.62109 11.4127 4.67063C11.4561 4.72017 11.4892 4.77776 11.5103 4.84011C11.5313 4.90245 11.5399 4.96834 11.5355 5.034L11 13.034Z" fill="#464646"/>
</svg>
